# xmcd
#
# Track frame offsets:
#	150
#	15088
#	29451
#	44359
#	59296
#	73074
#	88159
#	102619
#	117318
#	132515
#	147331
#	161978
#	176280
#	191238
#	205115
#	219415
#	233181
#	247760
#	263076
#	276995
#
# Disc length: 3887 seconds
#
# Revision: 0
# Processed by: cddbd v1.5.2PL0 Copyright (c) Steve Scherf et al.
# Submitted via: EasyCDDAExtractor 16.0.6.1
#
DISCID=2a0f2d14
DTITLE=Συλλογικός δίσκος - Τα ρεμπέτικα Γ 1937-1960 16 Β
DYEAR=2010
DGENRE=Ρεμπέτικη
TTITLE0=Χατζηχρήστος Απ.-Σταμούλης Ι.-Βαμβακάρης Μ. - Μινόρε της αυγής [λ. καν
TTITLE0=τάδα, Σ.Περιστέρης-Μ.Μάτσας, Αθ1946]
TTITLE1=Παγιουμτζής Στράτος - Το οργανάκι [ζεϊμπ. Γ. Μητσάκης, Αθήνα 1946]
TTITLE2=Τσαουσάκης Πρ.-Τσιτσάνης Β.-Βαμβακάρης Μ. - Κάτσε ν ' ακούσεις μιά πεν
TTITLE2=νιά [ζεϊμπ. Β. Τσιτσάνης, Αθ 10.1946]
TTITLE3=Παγιουμτζής Στράτος - Και συ δεν έχεις μπέσα [χασ. Δ.Σέμσης-Γ.Μητσάκης
TTITLE3=, Αθ 1946ή47]
TTITLE4=Χατζηχρήστος Απόστολος-Χατζηχρήστος Ευάγγελος - Μάρω [χασρβ. Α. Χατζηχ
TTITLE4=ρήστος, Αθ 6.1946]
TTITLE5=Περπινιάδης Στελλάκης-Μοσχονάς Οδυσσέας - Γιαχαμπίμπι [συρτό, Γ. Παπαϊ
TTITLE5=ωάννου, Αθήνα 6.1946]
TTITLE6=Γεωργακοπούλου Ιωάννα-Περπινιάδης Στελλάκης - Δεν με στεφανώνεσαι [χασ
TTITLE6=Β. Τσιτσάνης, Αθήνα 1946]
TTITLE7=Βαμβακάρης Μ.-Τσαουσάκης Πρ.-Τσιτσάνης Β. - Μέσ' στον οντά ενός πασά [
TTITLE7=ζεϊμπ. Σ.Περιστέρης, Αθ 1946]
TTITLE8=Βαμβακάρης Μάρκος-Εσκενάζυ Ρόζα - Καλόγερος [ζεϊμπ. Μ. Βαμβακάρης, Αθή
TTITLE8=να 1946]
TTITLE9=Σταυροπούλου Νταίζη - Πειραία μου σ' αφήνω γεια [χασ. Σ. Χρυσίνης, Αθ 
TTITLE9=1941ή46]
TTITLE10=Τσαουσάκης Πρόδρομος-Τσιτσάνης Βασίλης - Η μάγισσα της Βαγδάτης [χασ.
TTITLE10=Β. Τσιτσάνης, Αθήνα 1946]
TTITLE11=Παγιουμτζής Στράτος - Ο ψαράς [ζεϊμπ. Γ. Μητσάκης, Αθήνα 1946]
TTITLE12=Χατζηχρήστος Απ.-Σταμούλης Ι.-Βαμβακάρης Μ. - Είμαι απόψε στα μεράκια
TTITLE12=[ζεϊμπ. Κ. Καπλάνης, Αθ 1946]
TTITLE13=Τσαουσάκης Πρόδρομος-Τσιτσάνης Βασίλης - Γύρνα μόνος μέσ' στην νύχτα 
TTITLE13=[ζεϊμπ. Β. Τσιτσάνης, Αθ 1946]
TTITLE14=Περδικόπουλος Δημήτρης-Παπαϊωάννου Γιάννης - Ψαροπούλα [συρτός, Γ. Πα
TTITLE14=παϊωάννου, Αθήνα 1946]
TTITLE15=Περπινιάδης Στελλάκης-Χιώτης Μανώλης - Βουνό με βουνό [χασ. Μ. Χιώτης
TTITLE15=Δ. Σέμσης, Αθήνα 1946]
TTITLE16=Γεωργακοπούλου Ιωάννα-Περπινιάδης Στ.-Μητσάκης Γ. - Της μπαμπέσσας το
TTITLE16=φιλί [χασ. Γ. Μητσάκης, Αθήνα 1946]
TTITLE17=Χατζηχρήστος Απόστολος-Σταμούλης Ιωάννης - Η μαννούλα [ζεϊμπ. Α. Χατζ
TTITLE17=ηχρήστος, Αθήνα 1946]
TTITLE18=Γεωργακοπούλου Ιωάννα-Περπινιάδης Στελλάκης - Είμ' εργάτης στο λιμάνι
TTITLE18=[αλέγκρο, Σ. Χρυσίνης, Αθ 5.1947]
TTITLE19=Τσαουσάκης Πρόδρομος - Ζητιάνος [ζεϊμπ. Β. Τσιτσάνης, Αθήνα 10.1946]
EXTD=
EXTT0=
EXTT1=
EXTT2=
EXTT3=
EXTT4=
EXTT5=
EXTT6=
EXTT7=
EXTT8=
EXTT9=
EXTT10=
EXTT11=
EXTT12=
EXTT13=
EXTT14=
EXTT15=
EXTT16=
EXTT17=
EXTT18=
EXTT19=
PLAYORDER=
